<?xml version="1.0" encoding="UTF-8" standalone="no"?>
<svg width="815px" height="544px" viewBox="0 0 815 544" version="1.1" xmlns="http://www.w3.org/2000/svg" xmlns:xlink="http://www.w3.org/1999/xlink" xmlns:sketch="http://www.bohemiancoding.com/sketch/ns">
    <!-- Generator: Sketch 3.3.3 (12072) - http://www.bohemiancoding.com/sketch -->
    <!-- {{millSpeed}} -->
    <style type="text/css">
      #fan {
        transform-origin: 119px 146px;
        animation-iteration-count: infinite;
        animation-timing-function: linear;
      }

      #fan.running {
         animation-name: spin;
      }

      #fan.slow {
        animation-duration: 3000ms;
      }

      #fan.medium {
        animation-duration: 1000ms;
      }

      #fan.fast {
        animation-duration: 500ms;
      }

      .text {
       font-size: 24px;
      }

      @keyframes spin {
        from {
            transform: rotate(0deg);
        } to {
            transform: rotate(360deg);
        }
      }
    </style>
    <title>scada</title>
    <desc>Created with Sketch.</desc>
    <defs></defs>
    <g id="Page-1" stroke="none" stroke-width="1" fill="none" fill-rule="evenodd" sketch:type="MSPage">
        <g id="pipes" sketch:type="MSLayerGroup" transform="translate(115.000000, 439.000000)" stroke="#4990E2" stroke-width="10" stroke-linecap="square">
            <path d="M5.16727467,99 L600.999977,99" id="Line" sketch:type="MSShapeGroup"></path>
            <path d="M5,92.5 L5,0.304555416" id="pipe-mill" sketch:type="MSShapeGroup"></path>
            <path d="M601,97.5 L601,5.30455542" id="pipe-bat3" sketch:type="MSShapeGroup"></path>
        </g>
        <g id="Mill" sketch:type="MSLayerGroup" transform="translate(1.000000, 0.000000)">
            <path d="M132.824161,428.777703 L123.536094,225.726601 L113.435063,225.726601 L105.510388,428.777703 L132.824161,428.777703 Z" id="Shape" fill="#4990E2" sketch:type="MSShapeGroup"></path>



            <g id="fan" transform="translate(0.000000, 49.000000)" fill="#4990E2" sketch:type="MSShapeGroup" class="running slow">


            
            
                <path d="M125.017386,117.900839 C129.893793,117.900839 133.853046,112.719709 133.853046,107.846817 L125.214115,10.6698119 C125.214115,5.79691967 125.181898,0 120.304806,0 L119.124433,0 C114.248026,0 113.821666,5.79691967 113.821666,10.6698119 L105.576193,107.846817 C105.576193,112.719709 109.528591,117.900839 114.412538,117.900839 L125.017386,117.900839 L125.017386,117.900839 Z" id="Shape"></path>
                <path d="M229.579089,220.566526 C233.688459,223.192709 238.591599,226.284674 241.219677,222.178266 L241.855789,221.189166 C244.484552,217.082072 239.824067,213.604469 235.707157,210.98445 L158.183669,151.73915 C154.074299,149.112967 147.571967,149.65615 144.949373,153.769408 L139.246979,162.697335 C136.618902,166.804429 138.860377,172.921915 142.976601,175.548784 L229.579089,220.566526 L229.579089,220.566526 Z" id="Shape"></path>
                <path d="M13.5016282,220.566526 L100.1096,175.535084 C104.219655,172.908216 106.461815,166.790729 103.833053,162.683636 L98.130659,153.755708 C95.5025815,149.648615 89.0064181,149.104747 84.8970481,151.725451 L7.37356016,210.976915 C3.26350469,213.603784 -1.39698016,217.075223 1.22492814,221.181631 L1.8610408,222.170731 C4.48843283,226.283989 9.39157272,223.192709 13.5016282,220.566526 L13.5016282,220.566526 Z" id="Shape"></path>
                <ellipse id="Oval" cx="119.170359" cy="145.738794" rx="13.5879969" ry="13.5782038"></ellipse>
            </g>
            <text class="text" text-anchor="middle" x="120" y="33.1074219" width="200" id="Name" sketch:type="MSTextLayer" font-size="36" font-weight="normal" sketch:alignment="middle" fill="#000000">
                風車
            </text>
        </g>
        <g id="battery3" sketch:type="MSLayerGroup" transform="translate(611.000000, 60.000000)">
            <text class="text" text-anchor="middle" x="100" y="33.596733" width="200" id="Name-Copy-3" sketch:type="MSTextLayer" font-size="36" font-weight="normal" sketch:alignment="middle" fill="#000000">
                batteryName
            </text>
            <path d="M181.675271,79.0736342 L152.667836,79.0736342 L152.667836,64.5368171 C152.667836,56.5056532 146.177755,50 138.164877,50 L65.64629,50 C57.6334126,50 51.1425725,56.5056532 51.1425725,64.5368171 L51.1425725,79.0736342 L22.1351375,79.0736342 C10.1400892,79.0736342 0.379182156,88.8568171 0.379182156,100.87924 L0.379182156,348.005131 C0.379182156,360.026793 10.1400892,369.810736 22.1351375,369.810736 L181.67603,369.810736 C193.67032,369.810736 203.431985,360.027553 203.431985,348.005131 L203.431985,100.87924 C203.431227,88.8568171 193.67032,79.0736342 181.675271,79.0736342 L181.675271,79.0736342 Z M188.927509,348.004371 C188.927509,352.016152 185.678677,355.272399 181.67603,355.272399 L22.1351375,355.272399 C18.1324907,355.272399 14.883658,352.016152 14.883658,348.004371 L14.883658,100.87924 C14.883658,96.8674584 18.1324907,93.6112114 22.1351375,93.6112114 L65.64629,93.6112114 L138.164877,93.6112114 L181.67603,93.6112114 C185.678677,93.6112114 188.927509,96.8674584 188.927509,100.87924 L188.927509,348.004371 L188.927509,348.004371 Z" id="Shape" fill="#F6A623" sketch:type="MSShapeGroup"></path>
            <rect id="level3" fill="#F6A623" sketch:type="MSShapeGroup" x="29.3866171" y="108.147268" width="145.037175" height="72.6840855"></rect>
            <rect id="level2" fill="#F6A623" sketch:type="MSShapeGroup" x="29.3866171" y="188.100143" width="145.037175" height="72.6840855"></rect>
            <rect id="level1" fill="#F6A623" sketch:type="MSShapeGroup" x="29.3866171" y="269.052257" width="145.037175" height="72.6840855"></rect>
            <text class="text" xt-anchor="middle" x="100" y="236.982125" width="200" id="Value" sketch:type="MSTextLayer" text-anchor="middle" font-size="36" font-weight="normal" sketch:alignment="middle" fill="#000000">
                bat100
            </text>
        </g>
    </g>
</svg>
